<svg width="16" height="16" viewBox="0 0 16 16" fill="none" xmlns="http://www.w3.org/2000/svg">
<path fill-rule="evenodd" clip-rule="evenodd" d="M5.00209 7.90608L12.2309 1.72986C12.3954 1.59228 12.5 1.38551 12.5 1.1543C12.5 0.740083 12.1642 0.404297 11.75 0.404297C11.5613 0.404297 11.3889 0.473979 11.2571 0.589015L4.09772 6.70591C3.73468 6.97967 3.5 7.41458 3.5 7.9043C3.5 8.36719 3.70967 8.78111 4.03923 9.05626L11.2241 15.189C11.2494 15.2139 11.2764 15.237 11.305 15.2581L11.3087 15.2612L11.3089 15.2609C11.4327 15.3511 11.5851 15.4043 11.75 15.4043C12.1642 15.4043 12.5 15.0685 12.5 14.6543C12.5 14.4518 12.4198 14.2681 12.2893 14.1331L12.2928 14.1292L5.00209 7.90608Z" fill="#666666"/>
</svg>
