<svg width="16" height="16" viewBox="0 0 16 16" fill="none" xmlns="http://www.w3.org/2000/svg">
<path fill-rule="evenodd" clip-rule="evenodd" d="M10.9979 7.90608L3.76913 1.72987C3.60463 1.59229 3.5 1.38551 3.5 1.1543C3.5 0.740083 3.83579 0.404297 4.25 0.404297C4.43869 0.404297 4.6111 0.473975 4.74291 0.589005L11.9023 6.70591C12.2653 6.97968 12.5 7.41458 12.5 7.9043C12.5 8.36719 12.2903 8.78111 11.9608 9.05626L4.77591 15.189C4.75062 15.2139 4.72358 15.237 4.69498 15.2581L4.69132 15.2612L4.69108 15.2609C4.5673 15.3511 4.41486 15.4043 4.25 15.4043C3.83579 15.4043 3.5 15.0685 3.5 14.6543C3.5 14.4518 3.58025 14.2681 3.71068 14.1331L3.70723 14.1292L10.9979 7.90608Z" fill="#666666"/>
</svg>
