<svg width="75" height="57" viewBox="0 0 75 57" fill="none" xmlns="http://www.w3.org/2000/svg">
<path d="M12.6968 38.7274C12.6968 38.9351 12.5281 39.0389 12.1905 39.0389C12.0088 39.0389 11.84 39.026 11.6842 39C10.1263 38.9221 8.78912 38.8832 7.67263 38.8832C6.50421 38.8832 4.79053 38.9221 2.53158 39C1.7786 39.026 1.22035 39.0389 0.856842 39.0389C0.467368 39.0389 0.272632 38.9221 0.272632 38.6884C0.272632 38.5586 0.337544 38.4807 0.467368 38.4547C0.623158 38.4288 1.12947 38.4028 1.98632 38.3768C2.79123 38.2211 3.2586 37.9874 3.38842 37.6758C3.51825 37.3382 3.58316 36.2867 3.58316 34.5211V15.7874C3.58316 15.294 3.58316 14.8137 3.58316 14.3463C3.55719 13.8789 3.54421 13.6582 3.54421 13.6842C3.54421 13.0351 2.89509 12.7105 1.59684 12.7105C0.869825 12.7105 0.506316 12.6196 0.506316 12.4379C0.506316 12.2561 0.558246 12.1523 0.662105 12.1263C0.765965 12.1003 1.10351 12.0874 1.67474 12.0874C1.41509 12.0874 1.88246 12.1003 3.07684 12.1263C4.27123 12.1523 5.29684 12.1653 6.15368 12.1653H8.14C8.55544 12.1653 9.13965 12.1523 9.89263 12.1263C10.6716 12.0744 11.2168 12.0484 11.5284 12.0484H11.9179C12.2554 12.0484 12.4242 12.1523 12.4242 12.36C12.4242 12.5158 12.3593 12.6196 12.2295 12.6716C12.1256 12.6975 11.7361 12.7235 11.0611 12.7495C10.2561 12.8014 9.76281 12.9702 9.58105 13.2558L9.46421 13.9958V36.0011C9.46421 37.1175 9.58105 37.7796 9.81474 37.9874C10.0744 38.1951 10.9182 38.3379 12.3463 38.4158C12.58 38.4418 12.6968 38.5456 12.6968 38.7274ZM49.4997 12.3989C49.4997 12.6067 49.3049 12.7235 48.9155 12.7495C47.747 12.8014 47.007 12.9442 46.6955 13.1779C46.3839 13.3856 46.0334 14.0347 45.6439 15.1253C45.4102 15.7225 45.0597 16.6312 44.5923 17.8516C44.2548 18.8642 43.7225 20.4221 42.9955 22.5253C42.632 23.5119 42.0867 25.0049 41.3597 27.0042L39.4513 32.34C38.1011 36.1049 37.3481 38.273 37.1923 38.8442C37.0884 39.1818 36.9716 39.3505 36.8418 39.3505C36.686 39.3505 36.5562 39.2337 36.4523 39C36.3484 38.7404 36.0498 37.8446 35.5565 36.3126C34.9074 34.2874 33.9597 31.7688 32.7134 28.7568L31.3891 25.5632C28.7927 31.1196 26.9232 35.5337 25.7807 38.8053C25.6509 39.1428 25.5081 39.3116 25.3523 39.3116C25.2484 39.3116 24.9239 38.6235 24.3786 37.2474L19.627 24.8621C18.4846 21.7463 17.0176 18.0333 15.226 13.7232C15.0442 13.2558 14.7456 12.9702 14.3302 12.8663C14.0965 12.7884 13.6421 12.7495 12.967 12.7495C12.292 12.7495 11.9544 12.6326 11.9544 12.3989C11.9544 12.1912 12.1362 12.0874 12.4997 12.0874C12.4737 12.0874 12.9021 12.0874 13.7849 12.0874C14.6937 12.1133 15.4727 12.1263 16.1218 12.1263H17.6018L21.5355 12.0484C21.6653 12.0484 21.886 12.0354 22.1976 12.0095C22.4572 12.0095 22.639 12.0095 22.7428 12.0095C23.0804 12.0095 23.2491 12.1393 23.2491 12.3989C23.2491 12.6326 22.8337 12.7365 22.0028 12.7105C21.5614 12.7105 21.3407 12.8274 21.3407 13.0611C21.3407 13.1649 21.3667 13.2818 21.4186 13.4116C21.9898 14.9954 22.8597 17.3582 24.0281 20.5L28.0397 30.86L30.766 24.6284C30.3765 23.486 29.6235 21.4347 28.507 18.4747C28.2993 18.0074 28.0137 17.2933 27.6502 16.3326C27.5723 16.0989 27.4425 15.7354 27.2607 15.2421C26.8193 14.0477 26.4558 13.3337 26.1702 13.1C25.8846 12.8404 25.2874 12.7105 24.3786 12.7105C24.119 12.6846 23.9891 12.5677 23.9891 12.36C23.9891 12.1263 24.2358 12.0095 24.7291 12.0095C24.6513 12.0095 24.7811 12.0225 25.1186 12.0484C25.4821 12.0744 26.0663 12.0874 26.8712 12.0874L40.4639 12.0484C40.9572 12.0225 41.2039 12.1393 41.2039 12.3989C41.2039 12.6067 41.0091 12.7105 40.6197 12.7105C38.7762 12.6846 37.7116 12.9961 37.426 13.6453C36.9846 14.3463 36.0628 16.3326 34.6607 19.6042C35.5695 21.9411 37.0235 25.6411 39.0228 30.7042C39.4383 29.6396 39.8797 28.4582 40.347 27.16C40.7625 26.0695 41.4376 24.213 42.3723 21.5905C42.9695 19.8509 43.4758 18.4358 43.8913 17.3453C44.5923 15.5018 44.9428 14.3074 44.9428 13.7621C44.9428 13.2428 44.6832 12.9182 44.1639 12.7884C43.9821 12.7365 43.5148 12.7105 42.7618 12.7105C42.3463 12.7105 42.1386 12.6067 42.1386 12.3989C42.1386 12.1912 42.3334 12.0874 42.7228 12.0874L45.7997 12.1653C47.1239 12.1912 48.1235 12.1653 48.7986 12.0874H49.1102C49.3698 12.0874 49.4997 12.1912 49.4997 12.3989ZM36.1407 13.7621C36.1407 13.0611 35.5176 12.7105 34.2713 12.7105C32.999 12.7105 32.3628 12.9442 32.3628 13.4116C32.3628 14.0607 32.986 15.7225 34.2323 18.3968C35.5046 15.7484 36.1407 14.2035 36.1407 13.7621ZM74.0916 12.4768C74.0916 12.6067 73.9877 12.6846 73.78 12.7105C73.5983 12.7365 72.9102 12.7754 71.7158 12.8274C71.0147 12.8533 70.6123 12.9961 70.5084 13.2558C70.4046 13.4116 70.3656 14.2425 70.3916 15.7484L70.4305 20.2663C70.4565 23.2782 70.4695 27.2119 70.4695 32.0674V38.6884C70.4695 39.1298 70.3786 39.3505 70.1969 39.3505C69.9112 39.3505 68.0158 37.2084 64.5105 32.9242C61.0312 28.614 57.2014 23.6937 53.0211 18.1632V21.0453C53.0211 22.0319 53.034 22.8888 53.06 23.6158C53.06 24.3428 53.06 24.7842 53.06 24.94V37.0526C53.06 37.5979 53.2288 37.9354 53.5663 38.0653C54.1116 38.273 54.7477 38.3768 55.4747 38.3768C56.3316 38.3768 56.8119 38.4418 56.9158 38.5716C56.9418 38.5975 56.9547 38.6495 56.9547 38.7274C56.9547 38.9351 56.76 39.0389 56.3705 39.0389C56.1369 39.0389 55.9421 39.026 55.7863 39C54.2284 38.9481 53.2547 38.9221 52.8653 38.9221C51.9565 38.9221 50.7621 38.9481 49.2821 39C48.5551 39.026 48.2435 39.0389 48.3474 39.0389C47.9579 39.0389 47.7632 38.9351 47.7632 38.7274C47.7632 38.5456 48.3344 38.4158 49.4769 38.3379C50.8011 38.234 51.567 38.0263 51.7747 37.7147C51.9046 37.507 51.9695 36.5723 51.9695 34.9105V18.9032C51.9695 17.2674 51.9435 16.2807 51.8916 15.9432C51.7358 14.8007 51.2814 13.9698 50.5284 13.4505C49.9572 13.0611 48.8926 12.8404 47.3347 12.7884C46.9193 12.7625 46.7116 12.6456 46.7116 12.4379C46.7116 12.2042 46.8933 12.0874 47.2569 12.0874C47.4126 12.0874 47.9709 12.1133 48.9316 12.1653C49.399 12.1912 50.1 12.2042 51.0347 12.2042C52.9561 12.2042 54.514 12.1782 55.7084 12.1263L69.379 29.6916V14.2684C69.379 13.6453 69.2751 13.2558 69.0674 13.1C68.8597 12.9182 68.4183 12.8144 67.7432 12.7884L66.0684 12.7105C65.7569 12.6846 65.6011 12.5937 65.6011 12.4379C65.6011 12.2302 65.8347 12.1263 66.3021 12.1263H67.159C67.3147 12.1263 67.5744 12.1133 67.9379 12.0874C68.2754 12.0874 68.574 12.0874 68.8337 12.0874C71.4561 12.0874 72.9881 12.1003 73.4295 12.1263C73.8709 12.1523 74.0916 12.2691 74.0916 12.4768Z" fill="white"/>
<path d="M1.86476 50.6312C1.86476 50.5273 1.91402 50.4561 2.01254 50.4178C2.11653 50.3795 2.23146 50.3466 2.35735 50.3193C2.48871 50.2919 2.60912 50.2591 2.71858 50.2208C2.83352 50.1824 2.90194 50.1113 2.92383 50.0073C2.98403 49.8157 3.01961 49.6461 3.03056 49.4983C3.04698 49.345 3.05519 49.1808 3.05519 49.0057V48.784C3.05519 48.4885 3.0415 48.1929 3.01414 47.8974C2.99224 47.5963 2.9813 47.298 2.9813 47.0025C2.9813 46.8492 2.99224 46.696 3.01414 46.5427C3.0415 46.384 3.05519 46.228 3.05519 46.0748C3.05519 46.0529 3.05245 46.0228 3.04698 45.9845C3.04698 45.9462 3.04698 45.9078 3.04698 45.8695C3.04698 45.8312 3.04424 45.7984 3.03877 45.771C3.03877 45.7382 3.03877 45.7218 3.03877 45.7218C3.03877 45.7053 3.03603 45.6643 3.03056 45.5986C3.02508 45.5275 3.01961 45.4563 3.01414 45.3852C3.00866 45.3085 3.00319 45.2374 2.99772 45.1717C2.99224 45.1005 2.98677 45.0568 2.9813 45.0403V44.5642V44.3671C2.9813 44.3617 2.97582 44.3398 2.96488 44.3015C2.95393 44.2577 2.94025 44.2111 2.92383 44.1619C2.90741 44.1126 2.89099 44.0634 2.87457 44.0141C2.85815 43.9648 2.84447 43.9265 2.83352 43.8992C2.80615 43.839 2.735 43.8007 2.62006 43.7842C2.5106 43.7678 2.39566 43.7541 2.27525 43.7432C2.15484 43.7268 2.04538 43.7021 1.94686 43.6693C1.85381 43.631 1.80729 43.5571 1.80729 43.4476C1.80729 43.3382 1.82918 43.2697 1.87297 43.2424C1.92223 43.2095 2.00159 43.1931 2.11105 43.1931C2.13842 43.1931 2.18768 43.1931 2.25883 43.1931C2.33546 43.1877 2.41482 43.1849 2.49692 43.1849C2.58449 43.1849 2.66111 43.1877 2.72679 43.1931C2.79794 43.1931 2.8472 43.1931 2.87457 43.1931C2.88552 43.1877 2.90467 43.1794 2.93204 43.1685C2.9594 43.1521 2.97582 43.1439 2.9813 43.1439C2.99224 43.1439 3.01687 43.1603 3.05519 43.1931C3.09897 43.2205 3.12634 43.2396 3.13728 43.2506C3.19749 43.2725 3.25496 43.2862 3.30969 43.2916C3.36442 43.2916 3.42189 43.2916 3.4821 43.2916H3.6463C3.67913 43.2916 3.71197 43.2916 3.74481 43.2916C3.78313 43.2916 3.82418 43.2971 3.86796 43.3081C3.86796 43.3081 3.87617 43.3108 3.89259 43.3163C3.91448 43.3217 3.93638 43.3272 3.95827 43.3327C3.98564 43.3327 4.01027 43.3354 4.03216 43.3409C4.05405 43.3464 4.06773 43.3491 4.07321 43.3491C4.07868 43.3491 4.09784 43.3436 4.13068 43.3327C4.16899 43.3217 4.2073 43.3108 4.24561 43.2999C4.2894 43.2889 4.32771 43.278 4.36055 43.267C4.39887 43.2561 4.42349 43.2506 4.43444 43.2506C4.53843 43.2232 4.66432 43.1986 4.81209 43.1767C4.96534 43.1548 5.09944 43.1439 5.21438 43.1439C5.30195 43.1439 5.3731 43.1466 5.42783 43.1521C5.48804 43.1521 5.56466 43.1658 5.65771 43.1931C5.69602 43.226 5.71518 43.2643 5.71518 43.3081C5.71518 43.33 5.71244 43.3518 5.70697 43.3737C5.70149 43.3956 5.69876 43.4093 5.69876 43.4148C5.69876 43.5133 5.66045 43.5817 5.58382 43.62C5.50719 43.6529 5.41689 43.6775 5.31289 43.6939C5.2089 43.7103 5.10218 43.7322 4.99271 43.7596C4.88325 43.7815 4.79841 43.828 4.73821 43.8992C4.70537 43.943 4.67526 43.9977 4.6479 44.0634C4.62053 44.129 4.5959 44.1975 4.57401 44.2686C4.55759 44.3343 4.54391 44.4 4.53296 44.4657C4.52749 44.5259 4.52475 44.5806 4.52475 44.6298C4.52475 44.6353 4.52475 44.6654 4.52475 44.7202C4.52475 44.7749 4.52201 44.8406 4.51654 44.9172C4.51654 44.9883 4.51654 45.0622 4.51654 45.1389C4.51654 45.2155 4.51654 45.2757 4.51654 45.3195C4.51654 45.5931 4.52749 45.8559 4.54938 46.1076C4.57127 46.3594 4.58222 46.6221 4.58222 46.8958V47.4048C4.55485 47.4486 4.5357 47.4869 4.52475 47.5197C4.51928 47.5471 4.51654 47.5827 4.51654 47.6264C4.51654 47.6702 4.52749 47.7058 4.54938 47.7332C4.57127 47.7605 4.58222 47.7934 4.58222 47.8317V47.8563C4.57127 47.8673 4.56033 47.8946 4.54938 47.9384C4.53843 47.9603 4.53022 47.9849 4.52475 48.0123V48.0369C4.52475 48.0862 4.53296 48.1272 4.54938 48.1601C4.57127 48.1929 4.58222 48.2394 4.58222 48.2996C4.58222 48.4036 4.57127 48.5076 4.54938 48.6116C4.52749 48.7101 4.51654 48.8141 4.51654 48.9236C4.51654 48.9564 4.51654 49.0084 4.51654 49.0796C4.52201 49.1453 4.52475 49.1836 4.52475 49.1945C4.52475 49.2274 4.52749 49.2821 4.53296 49.3587C4.54391 49.4353 4.55485 49.5174 4.5658 49.605C4.57675 49.6871 4.58769 49.7665 4.59864 49.8431C4.61506 49.9197 4.62874 49.9745 4.63969 50.0073C4.69442 50.1003 4.78199 50.1633 4.9024 50.1961C5.02829 50.2235 5.15417 50.2481 5.28006 50.27C5.40594 50.2919 5.5154 50.322 5.60845 50.3603C5.70697 50.3986 5.75623 50.4698 5.75623 50.5738C5.75623 50.634 5.72612 50.6832 5.66592 50.7216C5.61119 50.7599 5.56193 50.779 5.51814 50.779H5.45246C5.41962 50.779 5.33479 50.7763 5.19796 50.7708C5.06113 50.7653 4.91609 50.7599 4.76283 50.7544C4.60958 50.7489 4.46454 50.7434 4.32771 50.738C4.19088 50.7325 4.10605 50.7298 4.07321 50.7298H3.97469H3.90901C3.65177 50.7626 3.39179 50.7872 3.12908 50.8037C2.86636 50.8255 2.60638 50.8365 2.34914 50.8365H2.02075C1.94959 50.8091 1.90581 50.7818 1.88939 50.7544C1.87297 50.7325 1.86476 50.6915 1.86476 50.6312ZM11.9783 50.4917C11.9783 50.4041 12.0057 50.333 12.0604 50.2782C12.1206 50.218 12.1918 50.1715 12.2739 50.1387C12.356 50.1003 12.4408 50.0702 12.5284 50.0483C12.6159 50.021 12.6898 49.9936 12.75 49.9662C12.865 49.906 12.958 49.8486 13.0292 49.7938C13.1003 49.7336 13.1551 49.6707 13.1934 49.605C13.2317 49.5339 13.259 49.4545 13.2755 49.3669C13.2919 49.2739 13.3001 49.1617 13.3001 49.0303V48.0616C13.3001 48.0506 13.3028 48.026 13.3083 47.9877C13.3138 47.9439 13.3192 47.9001 13.3247 47.8563C13.3357 47.8071 13.3439 47.7633 13.3494 47.725C13.3548 47.6866 13.3576 47.662 13.3576 47.6511V47.6264V47.5936C13.3576 47.5827 13.3548 47.5526 13.3494 47.5033C13.3439 47.454 13.3357 47.402 13.3247 47.3473C13.3192 47.2871 13.3138 47.2324 13.3083 47.1831C13.3028 47.1339 13.3001 47.101 13.3001 47.0846V47.0271V46.9779C13.3001 46.9669 13.3028 46.9368 13.3083 46.8876C13.3138 46.8383 13.3192 46.7863 13.3247 46.7316C13.3357 46.6714 13.3439 46.6166 13.3494 46.5674C13.3548 46.5126 13.3576 46.4798 13.3576 46.4689C13.363 46.4305 13.3685 46.3594 13.374 46.2554C13.3795 46.1459 13.3849 46.031 13.3904 45.9106C13.3959 45.7902 13.4013 45.678 13.4068 45.574C13.4123 45.4645 13.415 45.3879 13.415 45.3441C13.4369 45.2894 13.4479 45.2456 13.4479 45.2127C13.4533 45.1744 13.4561 45.1334 13.4561 45.0896C13.4561 44.9637 13.4205 44.8433 13.3494 44.7284C13.2837 44.608 13.2016 44.4958 13.1031 44.3918C13.0045 44.2878 12.8978 44.192 12.7829 44.1044C12.6734 44.0114 12.5749 43.9293 12.4873 43.8581C12.4818 43.8581 12.4736 43.8526 12.4627 43.8417C12.4517 43.8308 12.4463 43.8171 12.4463 43.8007C12.4298 43.7897 12.408 43.7678 12.3806 43.735C12.3532 43.7021 12.3231 43.6666 12.2903 43.6282C12.2574 43.5899 12.2246 43.5544 12.1918 43.5215C12.1644 43.4832 12.1452 43.4586 12.1343 43.4476V43.3902C12.1343 43.3409 12.148 43.3026 12.1753 43.2752C12.2027 43.2424 12.2383 43.1986 12.2821 43.1439C12.3094 43.1165 12.3259 43.1001 12.3313 43.0946C12.3423 43.0891 12.3614 43.0864 12.3888 43.0864H12.4791H12.6515C12.657 43.0919 12.6734 43.0973 12.7008 43.1028C12.7336 43.1083 12.7665 43.1138 12.7993 43.1192C12.8321 43.1247 12.8622 43.1302 12.8896 43.1357C12.9224 43.1411 12.9416 43.1439 12.9471 43.1439H13.0948H13.4561C13.478 43.1493 13.5218 43.1658 13.5874 43.1931C13.6586 43.2205 13.7024 43.2342 13.7188 43.2342C13.7462 43.2396 13.7899 43.2451 13.8502 43.2506C13.9158 43.2561 13.9842 43.2615 14.0554 43.267C14.1266 43.2725 14.1922 43.278 14.2524 43.2834C14.3181 43.2889 14.3646 43.2916 14.392 43.2916L14.5972 43.4969C14.6027 43.5078 14.6109 43.527 14.6219 43.5544C14.6383 43.5763 14.652 43.6036 14.6629 43.6365C14.6793 43.6638 14.693 43.6912 14.704 43.7186C14.7204 43.7404 14.7313 43.7541 14.7368 43.7596C14.7423 43.7651 14.7669 43.7952 14.8107 43.8499C14.86 43.8992 14.9174 43.9594 14.9831 44.0305C15.0488 44.1017 15.1172 44.1756 15.1884 44.2522C15.2595 44.3233 15.317 44.3808 15.3608 44.4246L15.369 44.4328C15.3744 44.4383 15.3772 44.4438 15.3772 44.4492C15.3772 44.4492 15.3799 44.452 15.3854 44.4574C15.3909 44.4684 15.3991 44.4766 15.41 44.4821C15.421 44.4821 15.4401 44.4903 15.4675 44.5067C15.4949 44.5176 15.5085 44.5259 15.5085 44.5313C15.5195 44.5313 15.5277 44.556 15.5332 44.6052C15.5441 44.649 15.5551 44.6764 15.566 44.6873C15.5715 44.6983 15.5906 44.7256 15.6235 44.7694C15.6618 44.8132 15.7001 44.8625 15.7384 44.9172C15.7822 44.9665 15.8205 45.013 15.8534 45.0568C15.8917 45.1005 15.9163 45.1279 15.9272 45.1389C15.9272 45.1498 15.9382 45.1717 15.9601 45.2045C15.9874 45.2374 16.0148 45.2757 16.0422 45.3195C16.0695 45.3578 16.0969 45.3961 16.1243 45.4344C16.1516 45.4673 16.1708 45.4891 16.1817 45.5001C16.1982 45.5165 16.242 45.5603 16.3131 45.6314C16.3843 45.6971 16.4581 45.771 16.5348 45.8531C16.6169 45.9297 16.6908 46.0036 16.7564 46.0748C16.8276 46.1459 16.8714 46.1925 16.8878 46.2143C16.9042 46.2308 16.9316 46.2691 16.9699 46.3293C17.0082 46.384 17.0493 46.447 17.093 46.5181C17.1423 46.5893 17.1861 46.6549 17.2244 46.7151C17.2627 46.7699 17.2901 46.8055 17.3065 46.8219C17.3174 46.8383 17.3421 46.8684 17.3804 46.9122C17.4187 46.9505 17.4597 46.9943 17.5035 47.0435C17.5473 47.0873 17.5884 47.1311 17.6267 47.1749C17.6705 47.2132 17.7006 47.2351 17.717 47.2406C17.7279 47.2515 17.7498 47.2789 17.7827 47.3227C17.821 47.361 17.8593 47.4048 17.8976 47.454C17.9359 47.4978 17.9715 47.5416 18.0043 47.5854C18.0426 47.6237 18.0673 47.6456 18.0782 47.6511C18.0837 47.6565 18.0974 47.6702 18.1193 47.6921C18.1466 47.7085 18.174 47.7277 18.2014 47.7496C18.2342 47.7715 18.2616 47.7934 18.2835 47.8153C18.3054 47.8372 18.319 47.8508 18.3245 47.8563C18.3738 47.8946 18.4148 47.9357 18.4477 47.9795C18.4805 48.0233 18.527 48.0506 18.5872 48.0616C18.6091 47.9904 18.6584 47.922 18.735 47.8563V47.569V47.2898C18.735 47.2789 18.7323 47.2543 18.7268 47.2159C18.7213 47.1776 18.7159 47.1366 18.7104 47.0928C18.7049 47.049 18.6994 47.008 18.694 46.9697C18.6885 46.9259 18.6858 46.8958 18.6858 46.8793V45.9106C18.6858 45.8996 18.683 45.8723 18.6775 45.8285C18.6721 45.7847 18.6639 45.7409 18.6529 45.6971C18.6474 45.6479 18.642 45.6041 18.6365 45.5658C18.631 45.5275 18.6283 45.5056 18.6283 45.5001V45.418C18.6283 45.3195 18.6365 45.2264 18.6529 45.1389C18.6748 45.0458 18.6858 44.9555 18.6858 44.8679C18.6858 44.7585 18.6803 44.649 18.6693 44.5395C18.6639 44.4301 18.6502 44.3233 18.6283 44.2194C18.6173 44.1646 18.579 44.1044 18.5133 44.0387C18.4477 43.9676 18.4039 43.9265 18.382 43.9156C18.3273 43.8773 18.2342 43.8472 18.1029 43.8253C17.977 43.8034 17.8456 43.776 17.7088 43.7432C17.5774 43.7103 17.4597 43.6666 17.3558 43.6118C17.2572 43.5571 17.208 43.4777 17.208 43.3737C17.208 43.3135 17.2271 43.2643 17.2654 43.226C17.3092 43.1822 17.3585 43.1548 17.4132 43.1439C17.4351 43.1384 17.468 43.1329 17.5117 43.1274C17.5555 43.1165 17.6021 43.1083 17.6513 43.1028C17.7006 43.0973 17.7444 43.0946 17.7827 43.0946C17.8265 43.0891 17.8538 43.0864 17.8648 43.0864C17.8812 43.0864 17.9086 43.0919 17.9469 43.1028C17.9852 43.1138 18.0153 43.1274 18.0372 43.1439H19.359L19.4575 43.0864H20.6233C20.6397 43.0864 20.6589 43.1083 20.6807 43.1521C20.7081 43.1959 20.7273 43.2232 20.7382 43.2342V43.3163V43.3902C20.7108 43.4394 20.6698 43.4832 20.6151 43.5215C20.5603 43.5544 20.5029 43.5845 20.4427 43.6118C20.3825 43.6337 20.3222 43.6529 20.262 43.6693C20.2018 43.6857 20.1526 43.6994 20.1143 43.7103H19.868C19.857 43.7103 19.8351 43.724 19.8023 43.7514C19.7695 43.7733 19.7421 43.7897 19.7202 43.8007C19.7038 43.8171 19.6655 43.8472 19.6053 43.891C19.5505 43.9293 19.5177 43.9539 19.5067 43.9648C19.4465 44.0086 19.4082 44.0579 19.3918 44.1126C19.3809 44.1619 19.3699 44.233 19.359 44.3261C19.359 44.3644 19.3562 44.4355 19.3508 44.5395C19.3453 44.6381 19.3371 44.7448 19.3261 44.8597C19.3206 44.9747 19.3152 45.0814 19.3097 45.1799C19.3042 45.2784 19.3015 45.3468 19.3015 45.3852C19.3015 45.4016 19.2988 45.4317 19.2933 45.4755C19.2878 45.5192 19.2796 45.5685 19.2687 45.6232C19.2632 45.678 19.2577 45.7272 19.2522 45.771C19.2468 45.8148 19.244 45.8449 19.244 45.8613V47.2898C19.244 47.3063 19.2413 47.3364 19.2358 47.3801C19.2303 47.4239 19.2249 47.4732 19.2194 47.5279C19.2194 47.5772 19.2167 47.6264 19.2112 47.6757C19.2057 47.7195 19.203 47.7469 19.203 47.7578V48.3407V48.9318C19.2139 48.9428 19.2221 48.9592 19.2276 48.9811C19.2385 49.003 19.244 49.0194 19.244 49.0303C19.244 49.0413 19.2358 49.0686 19.2194 49.1124C19.2084 49.1507 19.203 49.1726 19.203 49.1781V49.3505C19.203 49.4654 19.2084 49.5804 19.2194 49.6953C19.2358 49.8048 19.244 49.9225 19.244 50.0483V50.3521C19.2331 50.4342 19.1948 50.5081 19.1291 50.5738C19.0634 50.6395 18.9868 50.6723 18.8992 50.6723C18.7733 50.6723 18.6584 50.6312 18.5544 50.5491C18.4559 50.467 18.3601 50.3877 18.2671 50.3111C18.2506 50.2837 18.2315 50.2591 18.2096 50.2372C18.1932 50.2153 18.1767 50.1934 18.1603 50.1715C18.1494 50.1441 18.1384 50.1222 18.1275 50.1058C17.9523 49.865 17.769 49.6324 17.5774 49.408C17.3913 49.1781 17.1998 48.9537 17.0027 48.7348C16.8057 48.5104 16.6059 48.2887 16.4034 48.0698C16.2064 47.8454 16.0148 47.6182 15.8287 47.3884C15.8123 47.3774 15.7904 47.361 15.763 47.3391C15.7412 47.3172 15.7247 47.3008 15.7138 47.2898C15.5824 47.1858 15.473 47.0736 15.3854 46.9532C15.3033 46.8328 15.2075 46.7015 15.098 46.5592C15.0926 46.5592 15.0734 46.5455 15.0406 46.5181C15.0132 46.4907 14.9804 46.4606 14.9421 46.4278C14.9092 46.395 14.8764 46.3649 14.8435 46.3375C14.8162 46.3047 14.7998 46.2828 14.7943 46.2718C14.7943 46.2609 14.7779 46.2253 14.745 46.1651C14.7122 46.1049 14.6903 46.072 14.6793 46.0666C14.6793 46.0502 14.6629 46.0255 14.6301 45.9927C14.5972 45.9544 14.5589 45.9161 14.5152 45.8777C14.4768 45.834 14.4385 45.7956 14.4002 45.7628C14.3674 45.73 14.3455 45.7108 14.3345 45.7053C14.3291 45.6999 14.3209 45.6807 14.3099 45.6479C14.3044 45.6314 14.2962 45.615 14.2853 45.5986C14.2689 45.5822 14.2333 45.5494 14.1785 45.5001C14.1293 45.4508 14.0937 45.4125 14.0718 45.3852C14.0663 45.3852 14.0581 45.3934 14.0472 45.4098C14.0362 45.4262 14.0308 45.4371 14.0308 45.4426C14.0198 45.4645 14.0007 45.5083 13.9733 45.574C13.9514 45.6397 13.935 45.6834 13.924 45.7053V46.2882V46.6823C13.924 46.8356 13.9268 46.9833 13.9323 47.1256C13.9377 47.2625 13.9541 47.4185 13.9815 47.5936C13.987 47.6921 14.0007 47.7961 14.0226 47.9056C14.0499 48.0096 14.0663 48.1136 14.0718 48.2176V48.9318C14.0718 48.9537 14.0746 48.9948 14.08 49.055C14.0855 49.1097 14.091 49.1699 14.0964 49.2356C14.1019 49.3013 14.1074 49.3642 14.1129 49.4244C14.1183 49.4846 14.1238 49.5284 14.1293 49.5558C14.1402 49.6652 14.1621 49.7473 14.195 49.8021C14.2333 49.8568 14.299 49.9225 14.392 49.9991C14.4303 50.0429 14.485 50.0648 14.5562 50.0648C14.5836 50.0648 14.6137 50.062 14.6465 50.0566C14.6793 50.0511 14.7094 50.0483 14.7368 50.0483C14.7861 50.0593 14.8381 50.0785 14.8928 50.1058C14.953 50.1277 15.005 50.1605 15.0488 50.2043C15.0926 50.2426 15.1282 50.2864 15.1555 50.3357C15.1884 50.385 15.2048 50.4369 15.2048 50.4917C15.2048 50.5847 15.1719 50.6559 15.1063 50.7051C15.0461 50.7489 14.9694 50.7708 14.8764 50.7708H14.7943C14.7833 50.7708 14.756 50.7681 14.7122 50.7626C14.6739 50.7571 14.6301 50.7544 14.5808 50.7544C14.537 50.7489 14.496 50.7434 14.4577 50.738C14.4194 50.7325 14.3975 50.7298 14.392 50.7298C14.3701 50.7298 14.3236 50.738 14.2524 50.7544C14.1813 50.7653 14.1402 50.7708 14.1293 50.7708H13.5628C13.5354 50.7708 13.4725 50.7763 13.374 50.7872C13.2755 50.7982 13.1687 50.8091 13.0538 50.8201C12.9389 50.831 12.8321 50.842 12.7336 50.8529C12.6351 50.8639 12.5722 50.8721 12.5448 50.8775H12.4791C12.4353 50.8775 12.3833 50.8666 12.3231 50.8447C12.2684 50.8228 12.2137 50.7927 12.1589 50.7544C12.1097 50.7216 12.0659 50.6832 12.0276 50.6395C11.9947 50.5902 11.9783 50.5409 11.9783 50.4917ZM28.241 46.945C28.2356 46.9396 28.2246 46.9259 28.2082 46.904C28.1972 46.8766 28.1863 46.8602 28.1754 46.8547C28.1754 46.8492 28.1589 46.8301 28.1261 46.7972C28.1097 46.7808 28.0933 46.7671 28.0768 46.7562C28.0166 46.6248 27.9701 46.488 27.9373 46.3457C27.9099 46.1979 27.8743 46.0584 27.8305 45.927C27.8086 45.8668 27.7731 45.7655 27.7238 45.6232C27.6746 45.4755 27.6226 45.3195 27.5678 45.1553C27.5131 44.9911 27.4611 44.8378 27.4118 44.6955C27.3626 44.5477 27.327 44.4438 27.3051 44.3836C27.2285 44.2522 27.1464 44.14 27.0588 44.0469C26.9712 43.9539 26.8645 43.8581 26.7386 43.7596C26.7222 43.7432 26.7085 43.7268 26.6976 43.7103C26.6647 43.6775 26.6456 43.6611 26.6401 43.6611C26.6073 43.6556 26.558 43.6556 26.4923 43.6611C26.4321 43.6611 26.3692 43.6583 26.3035 43.6529C26.2433 43.6419 26.1913 43.6228 26.1475 43.5954C26.0983 43.568 26.0736 43.5215 26.0736 43.4558V43.4148C26.1229 43.3655 26.1721 43.3354 26.2214 43.3245C26.2707 43.3135 26.3227 43.3081 26.3774 43.3081C26.4212 43.3081 26.4622 43.3108 26.5005 43.3163C26.5443 43.3163 26.5826 43.3163 26.6155 43.3163C26.6593 43.3163 26.7003 43.3135 26.7386 43.3081C26.7769 43.2971 26.818 43.278 26.8618 43.2506H27.6253L27.732 43.3163H29.6203C29.6695 43.3163 29.6996 43.3327 29.7106 43.3655C29.727 43.3929 29.7352 43.423 29.7352 43.4558C29.7352 43.516 29.7188 43.5653 29.686 43.6036C29.6531 43.6365 29.6148 43.6748 29.571 43.7186C29.5163 43.7678 29.4479 43.8007 29.3658 43.8171C29.2892 43.8335 29.2125 43.8526 29.1359 43.8745C29.0648 43.891 29.0018 43.9238 28.9471 43.9731C28.8923 44.0168 28.865 44.0935 28.865 44.2029V44.2276C28.9252 44.5395 29.0155 44.8433 29.1359 45.1389C29.2563 45.4344 29.3685 45.73 29.4725 46.0255C29.5053 46.1186 29.53 46.2226 29.5464 46.3375C29.5683 46.447 29.5929 46.5482 29.6203 46.6413C29.6477 46.7507 29.6832 46.8575 29.727 46.9614C29.7763 47.06 29.8228 47.1557 29.8666 47.2488C29.883 47.2597 29.8967 47.2844 29.9076 47.3227C29.9186 47.361 29.9241 47.3911 29.9241 47.413C29.9843 47.6045 30.0527 47.7961 30.1293 47.9877C30.2114 48.1738 30.299 48.3599 30.392 48.5459L30.4331 48.587H30.4741H30.4905C30.5015 48.587 30.5097 48.5815 30.5152 48.5706C30.5261 48.5542 30.5371 48.5459 30.548 48.5459C30.6027 48.431 30.6602 48.3051 30.7204 48.1683C30.7806 48.026 30.8381 47.8809 30.8928 47.7332C30.9475 47.5854 30.9968 47.4404 31.0406 47.298C31.0898 47.1503 31.1309 47.0162 31.1637 46.8958C31.1692 46.8848 31.1747 46.852 31.1802 46.7972C31.1911 46.7425 31.2021 46.685 31.213 46.6248C31.2239 46.5592 31.2322 46.499 31.2376 46.4442C31.2486 46.384 31.2568 46.3457 31.2623 46.3293C31.2623 46.3129 31.2677 46.2882 31.2787 46.2554C31.2951 46.2226 31.3033 46.2007 31.3033 46.1897C31.4128 45.9763 31.5031 45.7655 31.5742 45.5576C31.6454 45.3441 31.7111 45.1224 31.7713 44.8926C31.8151 44.7503 31.8616 44.6134 31.9108 44.4821C31.9656 44.3507 31.9929 44.2029 31.9929 44.0387C31.9929 43.9566 31.9382 43.9019 31.8287 43.8745C31.7247 43.8417 31.6071 43.8143 31.4757 43.7924C31.3444 43.7651 31.2239 43.7295 31.1145 43.6857C31.0105 43.6419 30.9585 43.5653 30.9585 43.4558C30.964 43.4449 30.9694 43.4312 30.9749 43.4148C30.9804 43.3929 30.9886 43.3765 30.9995 43.3655C31.0105 43.3491 31.0296 43.3217 31.057 43.2834C31.0844 43.2451 31.1035 43.215 31.1145 43.1931H31.4429C31.5961 43.1931 31.7439 43.2068 31.8862 43.2342C32.034 43.2561 32.1818 43.267 32.3295 43.267C32.4937 43.267 32.6525 43.2561 32.8057 43.2342C32.959 43.2068 33.1149 43.1931 33.2737 43.1931C33.312 43.1931 33.3585 43.1986 33.4132 43.2095C33.4734 43.215 33.5282 43.2287 33.5774 43.2506C33.6322 43.267 33.6787 43.2944 33.717 43.3327C33.7553 43.3655 33.7745 43.4066 33.7745 43.4558C33.7745 43.5325 33.7252 43.5981 33.6267 43.6529C33.5336 43.7021 33.4242 43.7514 33.2983 43.8007C33.1724 43.8444 33.0493 43.8882 32.9289 43.932C32.8139 43.9758 32.7373 44.0251 32.699 44.0798C32.6388 44.1619 32.5895 44.2549 32.5512 44.3589C32.5129 44.4629 32.4801 44.5696 32.4527 44.6791C32.4253 44.7886 32.398 44.898 32.3706 45.0075C32.3487 45.117 32.3241 45.221 32.2967 45.3195C32.2037 45.615 32.0942 45.9051 31.9683 46.1897C31.8424 46.4743 31.7275 46.7644 31.6235 47.06C31.4648 47.5033 31.2869 47.9384 31.0898 48.3653C30.8928 48.7922 30.7122 49.2301 30.548 49.6789C30.5371 49.6953 30.5179 49.7418 30.4905 49.8185C30.4686 49.8896 30.444 49.969 30.4166 50.0566C30.3893 50.1387 30.3619 50.218 30.3345 50.2946C30.3127 50.3713 30.3017 50.4178 30.3017 50.4342C30.2579 50.5437 30.1922 50.6504 30.1047 50.7544C30.0171 50.8529 29.9076 50.9022 29.7763 50.9022C29.6778 50.9022 29.6093 50.8803 29.571 50.8365C29.5327 50.7982 29.4862 50.7352 29.4315 50.6477C29.3822 50.5765 29.3548 50.5218 29.3494 50.4835C29.3439 50.4452 29.3302 50.3795 29.3083 50.2864C29.1551 49.7117 28.9799 49.1562 28.7829 48.6198C28.5913 48.078 28.4107 47.5197 28.241 46.945ZM41.7206 50.6969H41.6796C41.6632 50.6969 41.6221 50.7051 41.5564 50.7216C41.4962 50.7325 41.4524 50.7434 41.4251 50.7544H39.5286C39.5176 50.738 39.504 50.7188 39.4875 50.6969C39.4547 50.6531 39.4355 50.623 39.4301 50.6066V50.5574C39.4301 50.4862 39.4574 50.4315 39.5122 50.3932C39.5724 50.3548 39.6408 50.3275 39.7174 50.3111C39.794 50.2946 39.8734 50.2837 39.9555 50.2782C40.0376 50.2728 40.1005 50.2618 40.1443 50.2454C40.1826 50.2235 40.2264 50.1934 40.2757 50.1551C40.3304 50.1113 40.3687 50.073 40.3906 50.0401C40.3961 50.0237 40.4016 49.9936 40.407 49.9498C40.418 49.9006 40.4262 49.8513 40.4317 49.8021C40.4371 49.7528 40.4399 49.7063 40.4399 49.6625C40.4454 49.6187 40.4481 49.5886 40.4481 49.5722C40.459 49.4627 40.4809 49.3532 40.5138 49.2438C40.5466 49.1288 40.563 49.0166 40.563 48.9072V47.9302C40.563 47.9247 40.5658 47.9083 40.5712 47.8809C40.5767 47.8536 40.5795 47.8262 40.5795 47.7988C40.5849 47.7715 40.5904 47.7469 40.5959 47.725C40.6013 47.6976 40.6041 47.6812 40.6041 47.6757V47.6347V47.6264C40.6041 47.5991 40.5986 47.5526 40.5877 47.4869C40.5767 47.4212 40.5685 47.3747 40.563 47.3473L40.5302 45.4016L40.522 45.2538V43.9648C40.522 43.9539 40.5056 43.9238 40.4727 43.8745C40.4399 43.8253 40.4125 43.787 40.3906 43.7596C40.3468 43.6939 40.2729 43.6447 40.169 43.6118C40.065 43.5735 39.9582 43.5407 39.8488 43.5133C39.7393 43.4859 39.6408 43.4531 39.5532 43.4148C39.4711 43.3765 39.4301 43.3217 39.4301 43.2506C39.4301 43.2013 39.4438 43.163 39.4711 43.1357C39.504 43.1083 39.5395 43.0891 39.5778 43.0782C39.6216 43.0618 39.6682 43.0536 39.7174 43.0536C39.7667 43.0481 39.8077 43.0453 39.8406 43.0453H39.9391C39.961 43.0453 40.0048 43.0481 40.0704 43.0536C40.1361 43.0536 40.2018 43.0563 40.2675 43.0618C40.3386 43.0672 40.4043 43.0727 40.4645 43.0782C40.5302 43.0782 40.5767 43.0809 40.6041 43.0864L40.6533 43.1439H40.6944H40.7108C40.7218 43.1329 40.7464 43.122 40.7847 43.111C40.8285 43.0946 40.8558 43.0864 40.8668 43.0864H41.8438C41.8657 43.0864 41.9094 43.0837 41.9751 43.0782C42.0408 43.0672 42.0791 43.0563 42.0901 43.0453H44.3642C44.3751 43.0563 44.3998 43.0672 44.4381 43.0782C44.4764 43.0837 44.5038 43.0864 44.5202 43.0864H45.0867C45.1961 43.0973 45.281 43.1357 45.3412 43.2013C45.4014 43.267 45.4534 43.3518 45.4971 43.4558V44.0634C45.4971 44.0743 45.5054 44.1099 45.5218 44.1701C45.5437 44.2303 45.5546 44.2631 45.5546 44.2686V44.3425C45.5546 44.3644 45.5491 44.4054 45.5382 44.4657C45.5327 44.5259 45.5218 44.5888 45.5054 44.6545C45.4889 44.7147 45.467 44.7694 45.4397 44.8187C45.4178 44.8679 45.3904 44.8926 45.3576 44.8926H45.3494C45.2563 44.8214 45.1852 44.7557 45.1359 44.6955C45.0867 44.6353 45.0374 44.5642 44.9881 44.4821C44.9772 44.4602 44.958 44.4246 44.9307 44.3753C44.9088 44.3261 44.8896 44.2905 44.8732 44.2686C44.8458 44.1975 44.8048 44.1208 44.7501 44.0387C44.6953 43.9512 44.6324 43.8718 44.5612 43.8007C44.4901 43.7295 44.4107 43.672 44.3231 43.6282C44.2356 43.579 44.148 43.5544 44.0604 43.5544H42.2953C42.2679 43.527 42.2433 43.5106 42.2214 43.5051C42.205 43.4996 42.1804 43.4969 42.1475 43.4969H42.0901C42.0682 43.5078 42.0299 43.527 41.9751 43.5544C41.9259 43.5763 41.8958 43.5954 41.8848 43.6118C41.8793 43.6118 41.8739 43.6255 41.8684 43.6529C41.8684 43.6748 41.8657 43.7021 41.8602 43.735C41.8602 43.7623 41.8575 43.7897 41.852 43.8171C41.852 43.839 41.8492 43.8526 41.8438 43.8581C41.8438 43.8691 41.8356 43.8882 41.8191 43.9156C41.8082 43.9375 41.7972 43.9539 41.7863 43.9648C41.7863 44.0196 41.7836 44.1126 41.7781 44.244C41.7726 44.3753 41.7671 44.5149 41.7617 44.6627C41.7562 44.805 41.7507 44.9418 41.7452 45.0732C41.7398 45.2045 41.7343 45.2948 41.7288 45.3441V45.5247V45.6479C41.7343 45.6807 41.7398 45.7327 41.7452 45.8039C41.7507 45.875 41.7562 45.9489 41.7617 46.0255C41.7671 46.1021 41.7726 46.1733 41.7781 46.239C41.7836 46.3047 41.7863 46.3512 41.7863 46.3785C41.8082 46.395 41.8438 46.4141 41.893 46.436C41.9423 46.4524 41.9915 46.4689 42.0408 46.4853C42.0955 46.5017 42.1475 46.5154 42.1968 46.5263C42.246 46.5318 42.2844 46.5345 42.3117 46.5345H42.4102C42.5471 46.5236 42.6839 46.5154 42.8207 46.5099C42.963 46.5044 43.0917 46.4825 43.2066 46.4442C43.327 46.4059 43.431 46.343 43.5186 46.2554C43.6116 46.1678 43.6746 46.0365 43.7074 45.8613C43.7074 45.8449 43.7101 45.8121 43.7156 45.7628C43.7211 45.7135 43.7266 45.6616 43.732 45.6068C43.7375 45.5521 43.743 45.5001 43.7485 45.4508C43.7539 45.4016 43.7567 45.366 43.7567 45.3441C43.7786 45.3003 43.8251 45.2565 43.8962 45.2127C43.9674 45.1635 44.0276 45.1389 44.0768 45.1389C44.1589 45.1389 44.2192 45.1717 44.2575 45.2374C44.2958 45.2976 44.3149 45.3633 44.3149 45.4344C44.3149 45.4946 44.3122 45.5494 44.3067 45.5986C44.3067 45.6479 44.2958 45.7026 44.2739 45.7628V47.4048C44.2958 47.4486 44.3067 47.4923 44.3067 47.5361C44.3122 47.5799 44.3149 47.6237 44.3149 47.6675V47.8892V48.0369C44.3149 48.119 44.2985 48.1902 44.2657 48.2504C44.2383 48.3106 44.1699 48.3407 44.0604 48.3407C43.9729 48.3407 43.9044 48.3106 43.8552 48.2504C43.8059 48.1847 43.7676 48.1026 43.7402 48.0041C43.7129 47.9056 43.691 47.8016 43.6746 47.6921C43.6581 47.5827 43.6363 47.4787 43.6089 47.3801C43.587 47.2816 43.5542 47.2023 43.5104 47.1421C43.4721 47.0764 43.4118 47.0435 43.3297 47.0435H43.2394C43.2285 47.049 43.1984 47.0545 43.1491 47.06C43.1053 47.0654 43.0561 47.0709 43.0014 47.0764C42.9466 47.0819 42.8974 47.0873 42.8536 47.0928C42.8098 47.0983 42.7852 47.101 42.7797 47.101H42.6155H42.205C42.101 47.1229 42.0189 47.164 41.9587 47.2242C41.8985 47.2789 41.852 47.3473 41.8191 47.4294C41.7863 47.506 41.7644 47.5909 41.7535 47.6839C41.748 47.777 41.7452 47.8727 41.7452 47.9713V48.2586C41.7452 48.2914 41.7425 48.3243 41.737 48.3571C41.7316 48.39 41.7288 48.4201 41.7288 48.4474C41.7288 48.4584 41.7206 48.4912 41.7042 48.5459C41.6878 48.6007 41.6796 48.6335 41.6796 48.6445V49.1699V49.3341C41.6796 49.46 41.685 49.5776 41.696 49.6871C41.7069 49.7966 41.737 49.9143 41.7863 50.0401C41.9177 50.1168 42.0435 50.1578 42.164 50.1633C42.2898 50.1688 42.4212 50.177 42.558 50.1879C42.5799 50.1879 42.6292 50.1934 42.7058 50.2043C42.7824 50.2153 42.8645 50.229 42.9521 50.2454C43.0397 50.2618 43.1218 50.2755 43.1984 50.2864C43.275 50.2974 43.3243 50.3029 43.3462 50.3029H43.7977C43.7977 50.3083 43.8114 50.3247 43.8388 50.3521C43.8716 50.374 43.8962 50.3877 43.9126 50.3932H43.9291H43.9537C43.9701 50.3877 43.9865 50.3795 44.003 50.3685C44.0139 50.3631 44.0249 50.3576 44.0358 50.3521C44.0467 50.3466 44.055 50.3439 44.0604 50.3439C44.0714 50.3439 44.0878 50.3603 44.1097 50.3932C44.1316 50.4205 44.148 50.4397 44.1589 50.4506H44.1836H44.2164C44.2164 50.4397 44.2219 50.4205 44.2328 50.3932C44.2438 50.3603 44.2575 50.3439 44.2739 50.3439H44.3149C44.6433 50.1523 44.9197 49.9143 45.1441 49.6296C45.3685 49.345 45.5875 49.0522 45.8009 48.7512L45.8255 48.743C45.831 48.743 45.8338 48.7457 45.8338 48.7512C45.8392 48.7512 45.8447 48.7512 45.8502 48.7512H45.8584C45.8639 48.7512 45.8775 48.7649 45.8994 48.7922C45.9268 48.8196 45.9432 48.8388 45.9487 48.8497V49.0303V49.2109C45.9487 49.2438 45.9432 49.304 45.9323 49.3916C45.9213 49.4791 45.9104 49.5722 45.8994 49.6707C45.894 49.7692 45.8857 49.8623 45.8748 49.9498C45.8639 50.0374 45.8584 50.0976 45.8584 50.1304C45.8255 50.1742 45.8037 50.2208 45.7927 50.27C45.7872 50.3193 45.779 50.3685 45.7681 50.4178C45.7626 50.4616 45.7517 50.5054 45.7352 50.5491C45.7243 50.5875 45.6969 50.623 45.6531 50.6559C45.6203 50.6559 45.5574 50.6586 45.4643 50.6641C45.3767 50.6641 45.2837 50.6668 45.1852 50.6723C45.0867 50.6778 44.9936 50.6832 44.906 50.6887C44.8185 50.6942 44.7583 50.6969 44.7254 50.6969C44.72 50.6969 44.7008 50.7024 44.668 50.7133C44.6406 50.7243 44.6077 50.738 44.5694 50.7544C44.5366 50.7708 44.5038 50.7845 44.4709 50.7954C44.4436 50.8064 44.4271 50.8119 44.4217 50.8119C44.4107 50.8119 44.3751 50.8009 44.3149 50.779C44.2547 50.7626 44.2219 50.7544 44.2164 50.7544H44.1836C44.0577 50.7544 43.9291 50.7626 43.7977 50.779C43.6664 50.8009 43.5295 50.8119 43.3872 50.8119C43.1081 50.8119 42.8289 50.7927 42.5498 50.7544C42.2762 50.7161 41.9998 50.6969 41.7206 50.6969ZM52.4171 49.293V49.2766C52.4171 49.2493 52.4198 49.2109 52.4253 49.1617C52.4307 49.1124 52.4362 49.0632 52.4417 49.0139C52.4472 48.9646 52.4526 48.9209 52.4581 48.8825C52.4636 48.8388 52.4663 48.8141 52.4663 48.8087C52.4718 48.7703 52.48 48.7238 52.491 48.6691C52.5019 48.6089 52.5156 48.5514 52.532 48.4967C52.5539 48.4365 52.5813 48.3872 52.6141 48.3489C52.6524 48.3051 52.6962 48.2832 52.7455 48.2832C52.7783 48.2832 52.8029 48.286 52.8193 48.2914C52.8412 48.2969 52.8631 48.3188 52.885 48.3571C52.9069 48.4173 52.9206 48.483 52.9261 48.5542C52.937 48.6198 52.9562 48.6855 52.9835 48.7512C52.9835 48.7621 52.989 48.7813 53 48.8087C53.0164 48.8306 53.0273 48.8497 53.0328 48.8661C53.093 48.9811 53.1532 49.1124 53.2134 49.2602C53.2791 49.4025 53.3503 49.5421 53.4269 49.6789C53.509 49.8157 53.5993 49.9416 53.6978 50.0566C53.8018 50.166 53.9222 50.2426 54.059 50.2864C54.0645 50.2974 54.0946 50.3029 54.1493 50.3029C54.1986 50.3029 54.2506 50.3001 54.3053 50.2946C54.3655 50.2892 54.4011 50.2864 54.4121 50.2864C54.423 50.2864 54.4531 50.2974 54.5024 50.3193C54.5571 50.3357 54.5954 50.3439 54.6173 50.3439H54.6748H54.7158C54.8855 50.3111 55.0387 50.2645 55.1756 50.2043C55.3179 50.1441 55.4383 50.0675 55.5368 49.9745C55.6353 49.8814 55.712 49.7692 55.7667 49.6379C55.8214 49.501 55.8488 49.3396 55.8488 49.1535V48.9072C55.8378 48.8853 55.8214 48.8442 55.7995 48.784C55.7776 48.7184 55.753 48.6499 55.7256 48.5788C55.6983 48.5076 55.6709 48.442 55.6435 48.3817C55.6216 48.3215 55.6025 48.2805 55.5861 48.2586C55.5368 48.171 55.4766 48.0971 55.4055 48.0369C55.3343 47.9713 55.2577 47.9165 55.1756 47.8727C55.0935 47.8235 55.0086 47.7797 54.9211 47.7414C54.839 47.7031 54.7569 47.6675 54.6748 47.6347C54.6529 47.6347 54.631 47.6264 54.6091 47.61C54.5927 47.6045 54.579 47.5963 54.568 47.5854C54.5571 47.5744 54.5297 47.5553 54.4859 47.5279C54.4476 47.5006 54.423 47.4869 54.4121 47.4869C54.3902 47.4869 54.3436 47.4814 54.2725 47.4705C54.2013 47.454 54.1603 47.4404 54.1493 47.4294C54.1275 47.4185 54.0919 47.402 54.0426 47.3801C53.9988 47.3583 53.9496 47.3336 53.8948 47.3063C53.8401 47.2789 53.7881 47.2543 53.7389 47.2324C53.6951 47.205 53.6622 47.1831 53.6403 47.1667C53.6075 47.1448 53.561 47.1147 53.5008 47.0764C53.4406 47.0381 53.3804 46.9998 53.3201 46.9614C53.2599 46.9231 53.2079 46.8903 53.1642 46.8629C53.1204 46.8356 53.0957 46.8219 53.0903 46.8219C53.0082 46.7617 52.9343 46.6741 52.8686 46.5592C52.8029 46.4388 52.7537 46.3375 52.7208 46.2554C52.7099 46.2226 52.6962 46.1842 52.6798 46.1405C52.6634 46.0967 52.6469 46.0529 52.6305 46.0091C52.6141 45.9653 52.5977 45.9297 52.5813 45.9024C52.5703 45.8695 52.5648 45.8504 52.5648 45.8449V44.9336C52.5648 44.9227 52.5703 44.898 52.5813 44.8597C52.5977 44.8214 52.6114 44.7913 52.6223 44.7694C52.6442 44.7311 52.6716 44.6736 52.7044 44.597C52.7427 44.5204 52.781 44.4438 52.8193 44.3671C52.8577 44.2905 52.8905 44.2221 52.9179 44.1619C52.9507 44.1017 52.9726 44.0661 52.9835 44.0552C53.0219 43.9895 53.0656 43.9375 53.1149 43.8992C53.1696 43.8609 53.2244 43.8253 53.2791 43.7924C53.3393 43.7596 53.394 43.7268 53.4433 43.6939C53.498 43.6556 53.5446 43.6091 53.5829 43.5544C53.6048 43.5489 53.6431 43.5407 53.6978 43.5297C53.7525 43.5188 53.81 43.5078 53.8702 43.4969C53.9304 43.4859 53.9851 43.475 54.0344 43.464C54.0891 43.4531 54.1275 43.4476 54.1493 43.4476C54.1603 43.4476 54.1849 43.4394 54.2232 43.423C54.267 43.4011 54.2944 43.3902 54.3053 43.3902H54.568C54.579 43.3847 54.5927 43.3792 54.6091 43.3737C54.62 43.3683 54.631 43.3628 54.6419 43.3573C54.6529 43.3518 54.6638 43.3491 54.6748 43.3491H54.7569C54.932 43.3491 55.0771 43.3655 55.192 43.3984C55.3124 43.4312 55.4438 43.4832 55.5861 43.5544C55.597 43.5544 55.6216 43.5598 55.66 43.5708C55.7037 43.5763 55.7311 43.5845 55.7421 43.5954C55.7749 43.6118 55.805 43.6337 55.8324 43.6611C55.8597 43.6885 55.8871 43.7186 55.9145 43.7514C55.9418 43.7788 55.9692 43.8034 55.9966 43.8253C56.0239 43.8472 56.0568 43.8581 56.0951 43.8581C56.1334 43.8581 56.169 43.8472 56.2018 43.8253C56.2346 43.8034 56.2647 43.7788 56.2921 43.7514C56.325 43.7186 56.3551 43.6912 56.3824 43.6693C56.4153 43.6474 56.4536 43.6365 56.4974 43.6365C56.6287 43.6365 56.7163 43.7049 56.7601 43.8417V44.1373V44.4082C56.7491 44.5888 56.7382 44.7776 56.7272 44.9747C56.7163 45.1662 56.6752 45.3496 56.6041 45.5247C56.5931 45.563 56.5795 45.5849 56.563 45.5904C56.5466 45.5959 56.5247 45.5986 56.4974 45.5986C56.4481 45.5986 56.3879 45.5603 56.3167 45.4837C56.2456 45.4016 56.1772 45.3085 56.1115 45.2045C56.0458 45.0951 55.9883 44.9856 55.9391 44.8761C55.8898 44.7667 55.8597 44.6791 55.8488 44.6134V44.5231C55.8324 44.4246 55.7995 44.3452 55.7503 44.285C55.701 44.2194 55.6435 44.1646 55.5779 44.1208C55.5122 44.0771 55.4383 44.0387 55.3562 44.0059C55.2796 43.9676 55.2002 43.932 55.1181 43.8992C55.1072 43.8992 55.0743 43.8828 55.0196 43.8499C54.9703 43.8171 54.9348 43.7979 54.9129 43.7924C54.8964 43.8034 54.8773 43.8116 54.8554 43.8171C54.839 43.8225 54.8198 43.828 54.7979 43.8335C54.7815 43.839 54.7678 43.8417 54.7569 43.8417C54.6036 43.9183 54.4613 43.9867 54.33 44.0469C54.1986 44.1072 54.0837 44.181 53.9851 44.2686C53.8921 44.3562 53.8182 44.4657 53.7635 44.597C53.7087 44.7229 53.6814 44.8871 53.6814 45.0896C53.6814 45.2264 53.7115 45.3414 53.7717 45.4344C53.8319 45.522 53.9085 45.5986 54.0016 45.6643C54.0946 45.7245 54.1959 45.782 54.3053 45.8367C54.4148 45.886 54.5188 45.9379 54.6173 45.9927C54.7268 46.0638 54.8335 46.135 54.9375 46.2061C55.0415 46.2718 55.1509 46.3211 55.2659 46.3539C55.3261 46.3703 55.3945 46.3895 55.4711 46.4114C55.5478 46.4333 55.6244 46.4579 55.701 46.4853C55.7776 46.5126 55.8515 46.5427 55.9227 46.5756C55.9938 46.6084 56.0513 46.6413 56.0951 46.6741C56.3906 46.8876 56.6178 47.1475 56.7765 47.454C56.9407 47.7605 57.0228 48.0971 57.0228 48.4638C57.0228 48.6718 56.9872 48.8825 56.9161 49.096C56.8449 49.304 56.7546 49.5038 56.6451 49.6953C56.366 50.073 56.0185 50.3439 55.6025 50.5081C55.1865 50.6723 54.7487 50.7544 54.2889 50.7544H54.2068C54.1959 50.7544 54.1685 50.7462 54.1247 50.7298C54.0864 50.7079 54.0645 50.6969 54.059 50.6969C54.0317 50.6915 53.9879 50.6805 53.9277 50.6641C53.8675 50.6477 53.8073 50.6312 53.7471 50.6148C53.6869 50.5984 53.6294 50.5847 53.5747 50.5738C53.5254 50.5574 53.4926 50.5491 53.4761 50.5491C53.3503 50.5108 53.2271 50.4753 53.1067 50.4424C52.9918 50.4041 52.8796 50.3384 52.7701 50.2454C52.7591 50.2344 52.7372 50.218 52.7044 50.1961C52.6716 50.1742 52.6387 50.1496 52.6059 50.1222C52.5731 50.0949 52.5429 50.0675 52.5156 50.0401C52.4882 50.0073 52.4718 49.9745 52.4663 49.9416C52.4663 49.9361 52.4636 49.9088 52.4581 49.8595C52.4526 49.8103 52.4472 49.7528 52.4417 49.6871C52.4362 49.6214 52.4307 49.5558 52.4253 49.4901C52.4198 49.4189 52.4171 49.3615 52.4171 49.3177V49.293ZM65.01 50.4753C65.01 50.4151 65.0428 50.3521 65.1085 50.2864C65.1797 50.2208 65.2508 50.1824 65.322 50.1715L66.1512 50.0648C66.1785 50.0648 66.2141 50.0347 66.2579 49.9745C66.3017 49.9143 66.3345 49.8623 66.3564 49.8185V49.3998C66.3564 49.1589 66.3482 48.9236 66.3318 48.6937C66.3208 48.4584 66.3154 48.2176 66.3154 47.9713V47.8563C66.3372 47.5881 66.3482 47.3145 66.3482 47.0353C66.3537 46.7562 66.3564 46.4743 66.3564 46.1897V45.3605V45.2127C66.3455 45.1252 66.3372 45.0184 66.3318 44.8926C66.3318 44.7612 66.329 44.6353 66.3236 44.5149C66.3181 44.3726 66.3126 44.2276 66.3071 44.0798L66.2497 44.0387C66.2442 44.0387 66.2086 44.036 66.1429 44.0305C66.0827 44.0251 66.0089 44.0196 65.9213 44.0141C65.8337 44.0086 65.7434 44.0032 65.6504 43.9977C65.5628 43.9922 65.4916 43.9867 65.4369 43.9813H65.2973H65.1742C65.1468 43.9813 65.1003 43.984 65.0346 43.9895C64.9744 43.9895 64.9087 43.9922 64.8376 43.9977C64.7719 44.0032 64.7062 44.0114 64.6405 44.0223C64.5749 44.0278 64.5311 44.0333 64.5092 44.0387C64.4982 44.0387 64.4791 44.0442 64.4517 44.0552C64.4298 44.0606 64.4134 44.0688 64.4025 44.0798C64.386 44.0907 64.3559 44.1126 64.3122 44.1455C64.2903 44.1619 64.2684 44.1756 64.2465 44.1865C64.241 44.1975 64.2273 44.2194 64.2054 44.2522C64.189 44.285 64.1671 44.3233 64.1397 44.3671C64.1179 44.4054 64.096 44.4438 64.0741 44.4821C64.0576 44.5149 64.0467 44.5368 64.0412 44.5477C64.0358 44.5532 64.0248 44.5669 64.0084 44.5888C63.9974 44.6052 63.9838 44.6271 63.9673 44.6545C63.9509 44.6764 63.9345 44.6983 63.9181 44.7202C63.9017 44.742 63.8934 44.753 63.8934 44.753C63.877 44.7694 63.8551 44.7995 63.8278 44.8433C63.8004 44.8871 63.7703 44.9336 63.7375 44.9829C63.7046 45.0321 63.6745 45.0787 63.6472 45.1224C63.6198 45.1662 63.6006 45.1963 63.5897 45.2127C63.5514 45.2401 63.5158 45.2565 63.483 45.262C63.4556 45.262 63.4255 45.262 63.3926 45.262C63.3489 45.262 63.3133 45.2593 63.2859 45.2538C63.2586 45.2428 63.2394 45.2155 63.2285 45.1717V44.7694C63.2285 44.5176 63.2558 44.2768 63.3105 44.0469C63.3708 43.8116 63.4118 43.568 63.4337 43.3163C63.4446 43.2725 63.4693 43.2451 63.5076 43.2342C63.5459 43.2178 63.5815 43.2095 63.6143 43.2095H63.6554H63.7949C63.8004 43.2095 63.8141 43.2287 63.836 43.267C63.8633 43.2999 63.8825 43.3163 63.8934 43.3163C63.9153 43.3272 63.9564 43.3382 64.0166 43.3491C64.0768 43.3601 64.1206 43.3655 64.148 43.3655H65.2809C65.3521 43.3929 65.3986 43.4093 65.4205 43.4148C65.4478 43.4148 65.4889 43.4148 65.5436 43.4148H65.6421C65.6695 43.4148 65.7407 43.4121 65.8556 43.4066C65.9705 43.4011 66.0937 43.3956 66.225 43.3902C66.3564 43.3847 66.4796 43.3792 66.5945 43.3737C66.7149 43.3683 66.7888 43.3655 66.8162 43.3655H69.7799C69.7909 43.3655 69.8127 43.3628 69.8456 43.3573C69.8784 43.3464 69.914 43.3354 69.9523 43.3245C69.9906 43.3135 70.0262 43.3026 70.059 43.2916C70.0974 43.2807 70.1247 43.2725 70.1411 43.267C70.163 43.2506 70.1849 43.2287 70.2068 43.2013C70.2287 43.174 70.2533 43.1466 70.2807 43.1192C70.3081 43.0864 70.3382 43.059 70.371 43.0371C70.4039 43.0152 70.4422 43.0043 70.486 43.0043C70.5407 43.0043 70.5872 43.0207 70.6255 43.0536C70.6638 43.0864 70.6939 43.1274 70.7158 43.1767C70.7432 43.2205 70.7624 43.2697 70.7733 43.3245C70.7897 43.3792 70.7979 43.4285 70.7979 43.4723C70.8034 43.4996 70.8089 43.5379 70.8144 43.5872C70.8198 43.631 70.8253 43.6775 70.8308 43.7268C70.8362 43.776 70.8417 43.8198 70.8472 43.8581C70.8527 43.8964 70.8554 43.9183 70.8554 43.9238V44.5067V45.1142C70.8335 45.1635 70.8116 45.2018 70.7897 45.2292C70.7678 45.2511 70.724 45.262 70.6584 45.262H70.5927C70.5817 45.2565 70.5489 45.2264 70.4942 45.1717C70.4449 45.117 70.4093 45.0787 70.3874 45.0568C70.3765 45.0403 70.3546 45.0048 70.3218 44.95C70.2889 44.8953 70.2533 44.8378 70.215 44.7776C70.1767 44.7119 70.1384 44.6517 70.1001 44.597C70.0673 44.5423 70.0426 44.5067 70.0262 44.4903C70.0153 44.4739 69.9906 44.4465 69.9523 44.4082C69.9195 44.3699 69.8812 44.3288 69.8374 44.285C69.7936 44.2412 69.7498 44.2002 69.706 44.1619C69.6677 44.1236 69.6403 44.0962 69.6239 44.0798C69.5637 44.0688 69.498 44.0497 69.4269 44.0223C69.3557 43.995 69.2846 43.9813 69.2134 43.9813H69.156C69.1505 43.9813 69.1176 43.9922 69.0574 44.0141C68.9972 44.0305 68.9617 44.0387 68.9507 44.0387H68.9343H68.8932C68.8823 44.0333 68.844 44.0251 68.7783 44.0141C68.7126 43.9977 68.6415 43.984 68.5649 43.9731C68.4937 43.9566 68.4253 43.9457 68.3596 43.9402C68.2939 43.9293 68.2529 43.9238 68.2365 43.9238H68.1379C67.9792 43.9238 67.8752 43.9785 67.826 44.088C67.7767 44.192 67.7521 44.3124 67.7521 44.4492C67.7521 44.5477 67.7548 44.6463 67.7603 44.7448C67.7712 44.8378 67.7767 44.9227 67.7767 44.9993C67.7767 45.0102 67.774 45.0321 67.7685 45.065C67.763 45.0923 67.7576 45.1252 67.7521 45.1635C67.7466 45.1963 67.7411 45.2292 67.7357 45.262C67.7302 45.2894 67.7274 45.3085 67.7274 45.3195C67.7274 45.3468 67.7302 45.4125 67.7357 45.5165C67.7411 45.615 67.7466 45.7245 67.7521 45.8449C67.7576 45.9653 67.763 46.0803 67.7685 46.1897C67.774 46.2937 67.7767 46.3621 67.7767 46.395V46.8219V47.9138C67.7822 47.9849 67.7877 48.1081 67.7931 48.2832C67.8041 48.4584 67.815 48.6445 67.826 48.8415C67.8369 49.0385 67.8451 49.2246 67.8506 49.3998C67.8615 49.5694 67.8698 49.6899 67.8752 49.761C67.9135 49.8322 67.971 49.8869 68.0476 49.9252C68.1297 49.9635 68.2173 49.9964 68.3103 50.0237C68.4089 50.0456 68.5074 50.0675 68.6059 50.0894C68.7044 50.1058 68.7947 50.1304 68.8768 50.1633C68.9589 50.1907 69.0246 50.229 69.0739 50.2782C69.1286 50.3275 69.156 50.3932 69.156 50.4753C69.156 50.5519 69.1313 50.6148 69.0821 50.6641C69.0328 50.7079 68.9726 50.7407 68.9015 50.7626C68.8358 50.79 68.7646 50.8091 68.688 50.8201C68.6114 50.831 68.5484 50.8365 68.4992 50.8365C68.4828 50.8365 68.4472 50.8255 68.3924 50.8037C68.3377 50.7872 68.3021 50.779 68.2857 50.779C68.2529 50.7736 68.1981 50.7653 68.1215 50.7544C68.0449 50.7434 67.9984 50.738 67.982 50.738H67.161C67.15 50.7325 67.1254 50.7243 67.0871 50.7133C67.0542 50.6969 67.0323 50.6887 67.0214 50.6887C67.0159 50.6887 66.9968 50.6915 66.9639 50.6969C66.9311 50.7024 66.8955 50.7079 66.8572 50.7133C66.8189 50.7188 66.7806 50.7243 66.7423 50.7298C66.704 50.7352 66.6766 50.738 66.6602 50.738C66.496 50.7763 66.3455 50.7982 66.2086 50.8037C66.0718 50.8146 65.9158 50.8255 65.7407 50.8365C65.7242 50.8365 65.6941 50.8392 65.6504 50.8447C65.612 50.8502 65.5683 50.8556 65.519 50.8611C65.4752 50.8721 65.4342 50.8803 65.3959 50.8858C65.3575 50.8912 65.3329 50.894 65.322 50.894C65.2782 50.894 65.2371 50.8775 65.1988 50.8447C65.166 50.8173 65.1331 50.7818 65.1003 50.738C65.0729 50.6887 65.051 50.6422 65.0346 50.5984C65.0182 50.5491 65.01 50.5081 65.01 50.4753Z" fill="white"/>
</svg>
